<svg xmlns="http://www.w3.org/2000/svg" version="1" viewBox="0 0 341.98998 118.72002" id="svg4542" width="341.99" height="118.72"><style id="style4527">.st0{fill:#1d1d1b}.st1{fill:url(#SVGID_1_)}</style><g id="Logo"><g id="g4539" transform="translate(-30.008 -102.328)"><linearGradient id="SVGID_1_" gradientUnits="userSpaceOnUse" x1="28.526" y1="152.285" x2="371.5" y2="152.285" gradientTransform="translate(1.138 1.897)"><stop offset="0" id="stop4532" stop-color="#0084b1"/><stop offset="1" id="stop4534" stop-color="#00a255"/></linearGradient><path class="st1" d="M233.078 208.077h-60.89v-31.13h23.24c.51 2.93 3.05 5.17 6.14 5.17 3.45 0 6.24-2.8 6.24-6.24 0-1.04-.27-1.99-.72-2.85l25.99-17.73zm-31.52-36.48c2.35 0 4.27 1.91 4.27 4.27 0 2.35-1.91 4.26-4.27 4.26a4.266 4.266 0 1 1 0-8.53m31.52-18.81l-27.22 18.56a6.21 6.21 0 0 0-4.3-1.74c-3.11 0-5.67 2.29-6.15 5.26h-23.23s.03-10.6.03-12.4c0-5.49-4.46-9.95-9.95-9.95-5.5 0-9.95 4.46-9.95 9.95 0 .11-.04 4.01-.04 5.4h-30.88c.86 2.36 1.51 4.91 1.91 7.71.45 3.09.75 6.84.94 11.13h28.03v15.63c0 2.06.01 5.72.01 5.72h-29.38c-.49-2.96-3.04-5.22-6.14-5.22-3.1 0-5.65 2.26-6.14 5.22h-24.28c-.01-.02 0-15.35 0-15.35 0-15.53-3.71-20.85-13.72-23-1.71-.37-5.39-.34-5.39-.34v-15.83h42.07c3.95 2.32 6.98 5.06 9.07 8.22.11.16.16.38.27.54v-19.29c-2.33 3.69-5.15 6.53-9.43 8.46h-41.98v-15.09c6.56 0 10.91-1.47 14.19-4.4 3.28-2.92 4.96-7.6 4.93-14.02-.01-1.42-.03-1.47-.03-1.47h24.18c.5 2.95 3.05 5.2 6.14 5.2s5.64-2.25 6.14-5.2h29.49v13.89c1.85-2.43 4.35-4.42 7.5-6 3.14-1.57 6.71-2.35 10.71-2.35 10.53 0 18.73 2.59 24.7 7.66v-5.95c0-2.52.1-4.91.24-7.25h37.66zm-112.17-37.33c0 2.35-1.91 4.27-4.27 4.27-2.35 0-4.27-1.91-4.27-4.27 0-2.35 1.91-4.26 4.27-4.26 2.37-.01 4.27 1.9 4.27 4.26m-8.43 93.64c0-2.35 1.91-4.27 4.27-4.27a4.266 4.266 0 0 1 0 8.53 4.26 4.26 0 0 1-4.27-4.26m255.19-45.61c2.09 3.16 3.44 7.04 4.33 11.37v-41.04c-.63 3.07-1.43 5.88-2.51 8.25-2.23 4.89-5.85 8.52-10.87 10.88h-42.33v-14.85c6.57 0 11.15-1.46 14.44-4.39 3.28-2.92 4.47-7.67 4.47-14.09v-7.73c0-5.28-4.23-9.56-9.45-9.56-5.22 0-9.45 4.28-9.45 9.56 0 1.09.05 7.11-.07 8.22v5.57h-29.39v17.78h-36.62v-27.2c0-1.24-.06-4.61-.06-5.38 0-4.72-3.82-8.54-8.54-8.54-4.72 0-8.54 3.83-8.54 8.54 0 .74.07 3.01.05 3.56h-37.58c.28-3.51.71-6.84 1.3-9.96h-44.57v9.96h-29.49c-.49-2.96-3.04-5.23-6.14-5.23-3.1 0-5.65 2.27-6.14 5.23h-24.17v-2.55c0-5.28-4.28-9.56-9.55-9.56-5.28 0-9.55 4.28-9.55 9.56 0 1.01.06 12.08.06 12.08h-37.29v60.18h37.23v27.34c0 5.28 4.28 9.56 9.55 9.56 5.28 0 9.55-4.28 9.55-9.56v-1.35h24.27c.5 2.95 3.05 5.21 6.14 5.21 3.1 0 5.64-2.26 6.14-5.21h29.39v.94c0 5.5 4.46 9.96 9.96 9.96 5.5 0 9.97-4.46 9.97-9.96 0-.3-.06-.58-.09-.87 0-.02.01-.04.01-.07h60.94v2.37c0 4.72 3.82 8.54 8.54 8.54 4.72 0 8.54-3.82 8.54-8.54 0-.41.06-3.17.06-4.37v-33.2h36.62v10.92h29.46V211.488c0 5.28 4.23 9.56 9.45 9.56 5.22 0 9.45-4.28 9.45-9.56 0-.69.03-8.15.03-12.35v-4.49c0-15.85-4.12-21.24-11.36-23.15-2.26-.6-7.58-.41-7.58-.41v-16.08h42.32c4.16 2.37 6.91 5.2 9.07 8.48" id="path4537" fill="url(#SVGID_1_)"/></g></g></svg>